<svg fill="none" xmlns="http://www.w3.org/2000/svg" viewBox="0 0 86 86"><circle cx="43" cy="43" r="43" fill="#fff"/><path fill-rule="evenodd" clip-rule="evenodd" d="M42.999 31.51c6.426 0 11.638 5.211 11.638 11.637 0 6.427-5.212 11.638-11.638 11.638-6.427 0-11.638-5.211-11.638-11.638 0-6.426 5.211-11.637 11.638-11.637z" fill="#D00A10"/><path fill-rule="evenodd" clip-rule="evenodd" d="M43.002 28.546c8.063 0 14.601 6.538 14.601 14.601S51.065 57.75 43.002 57.75 28.4 51.21 28.4 43.147s6.539-14.601 14.602-14.601zm0-3.449c9.967 0 18.05 8.083 18.05 18.05s-8.083 18.05-18.05 18.05c-9.968 0-18.05-8.083-18.05-18.05s8.082-18.05 18.05-18.05z" fill="#D00A10"/><path fill-rule="evenodd" clip-rule="evenodd" d="M42.997 18.374c13.679 0 24.772 11.093 24.772 24.771 0 13.679-11.093 24.771-24.772 24.771-13.678 0-24.77-11.092-24.77-24.77 0-13.68 11.092-24.772 24.77-24.772zm0 4.064c11.435 0 20.708 9.273 20.708 20.707 0 11.435-9.273 20.708-20.708 20.708-11.435 0-20.708-9.273-20.708-20.708 0-11.434 9.273-20.708 20.708-20.708z" fill="#D00A10"/><path fill-rule="evenodd" clip-rule="evenodd" d="M42.998 11.806c17.307 0 31.341 14.034 31.341 31.34 0 17.305-14.034 31.34-31.34 31.34-17.306 0-31.34-14.035-31.34-31.34 0-17.306 14.034-31.34 31.34-31.34zm0 3.735c15.244 0 27.605 12.361 27.605 27.605 0 15.243-12.36 27.604-27.605 27.604-15.242 0-27.604-12.361-27.604-27.605 0-15.243 12.361-27.604 27.604-27.604z" fill="#D00A10"/><path fill-rule="evenodd" clip-rule="evenodd" d="M42.999 9.074c18.814 0 34.07 15.257 34.07 34.07 0 18.813-15.256 34.07-34.07 34.07-18.813 0-34.07-15.257-34.07-34.07 0-18.813 15.257-34.07 34.07-34.07zm0-3.345c20.66 0 37.415 16.755 37.415 37.415S63.66 80.56 43 80.56 5.584 63.804 5.584 43.144 22.34 5.73 43 5.73z" fill="#D00A10"/></svg>