<svg width="40" height="40" viewBox="0 0 40 40" fill="none" xmlns="http://www.w3.org/2000/svg">
<g clip-path="url(#clip0)">
<path fill-rule="evenodd" clip-rule="evenodd" d="M20 1C30.4918 1 39.0002 9.50844 39.0002 20C39.0002 30.4918 30.4918 39 20 39C9.50844 39 1 30.4918 1 20C1 9.50844 9.50844 1 20 1Z" fill="white"/>
<path fill-rule="evenodd" clip-rule="evenodd" d="M19.9999 14.8677C22.8339 14.8677 25.1323 17.1661 25.1323 19.9999C25.1323 22.8339 22.8339 25.1321 19.9999 25.1321C17.1659 25.1321 14.8677 22.8339 14.8677 19.9999C14.8677 17.1661 17.1661 14.8677 19.9999 14.8677ZM19.9999 4.97503C28.2966 4.97503 35.025 11.7032 35.025 19.9999C35.025 28.2966 28.2968 35.0248 19.9999 35.0248C11.7032 35.0248 4.97503 28.2966 4.97503 19.9999C4.97503 11.7034 11.7034 4.97503 19.9999 4.97503ZM19.9999 3.5C29.1111 3.5 36.5 10.8887 36.5 19.9999C36.5 29.1111 29.1111 36.5 19.9999 36.5C10.8889 36.5 3.5 29.1113 3.5 19.9999C3.5 10.8889 10.8889 3.5 19.9999 3.5ZM19.9999 6.17911C27.6318 6.17911 33.8211 12.3682 33.8211 20.0001C33.8211 27.632 27.632 33.8211 19.9999 33.8211C12.3682 33.8211 6.1789 27.632 6.1789 20.0001C6.1789 12.3682 12.3682 6.17911 19.9999 6.17911ZM19.9999 7.82646C26.7223 7.82646 32.1735 13.2779 32.1735 19.9999C32.1735 26.7221 26.7221 32.1735 19.9999 32.1735C13.2777 32.1735 7.82646 26.7221 7.82646 19.9999C7.82646 13.2779 13.2777 7.82646 19.9999 7.82646ZM19.9999 9.07588C26.0321 9.07588 30.9239 13.9676 30.9239 19.9999C30.9239 26.0321 26.0321 30.9239 19.9999 30.9239C13.9676 30.9239 9.07588 26.0321 9.07588 19.9999C9.07588 13.9679 13.9676 9.07588 19.9999 9.07588ZM19.9999 10.8678C25.0427 10.8678 29.1322 14.9573 29.1322 19.9999C29.1322 25.0427 25.0427 29.132 19.9999 29.132C14.9573 29.132 10.8678 25.0425 10.8678 19.9999C10.8678 14.9573 14.9573 10.8678 19.9999 10.8678ZM19.9999 13.5609C23.5556 13.5609 26.4391 16.4444 26.4391 20.0001C26.4391 23.5559 23.5556 26.4393 19.9999 26.4393C16.4441 26.4393 13.5607 23.5559 13.5607 20.0001C13.5607 16.4444 16.4444 13.5609 19.9999 13.5609ZM19.9999 12.0401C24.3953 12.0401 27.9599 15.6045 27.9599 20.0001C27.9599 24.3955 24.3953 27.9601 19.9999 27.9601C15.6045 27.9601 12.0399 24.3958 12.0399 20.0001C12.0401 15.6047 15.6047 12.0401 19.9999 12.0401Z" fill="#D00A10"/>
</g>
<defs>
<clipPath id="clip0">
<rect width="40" height="40" fill="white"/>
</clipPath>
</defs>
</svg>
