<svg width="96" height="96" viewBox="0 0 96 96" fill="none" xmlns="http://www.w3.org/2000/svg">
<circle cx="48" cy="48" r="48" fill="white"/>
<path fill-rule="evenodd" clip-rule="evenodd" d="M48.0032 41.7812C51.4384 41.7812 54.2241 44.567 54.2241 48.0021C54.2241 51.4373 51.4384 54.223 48.0032 54.223C44.568 54.223 41.7822 51.4373 41.7822 48.0021C41.7822 44.567 44.568 41.7812 48.0032 41.7812Z" fill="#D00A10"/>
<path fill-rule="evenodd" clip-rule="evenodd" d="M48.0061 40.1969C52.3161 40.1969 55.8112 43.6919 55.8112 48.0019C55.8112 52.3119 52.3161 55.807 48.0061 55.807C43.696 55.807 40.2009 52.3119 40.2009 48.0019C40.2009 43.6919 43.696 40.1969 48.0061 40.1969ZM48.0061 38.3535C53.334 38.3535 57.6546 42.6741 57.6546 48.0019C57.6546 53.3298 53.334 57.6504 48.0061 57.6504C42.6781 57.6504 38.3579 53.3298 38.3579 48.0019C38.3579 42.6741 42.6781 38.3535 48.0061 38.3535Z" fill="#D00A10"/>
<path fill-rule="evenodd" clip-rule="evenodd" d="M47.9981 34.76C55.3099 34.76 61.2397 40.6894 61.2397 48.0011C61.2397 55.3129 55.3103 61.2423 47.9981 61.2423C40.6863 61.2423 34.7568 55.3129 34.7568 48.0011C34.7568 40.6894 40.6863 34.76 47.9981 34.76ZM47.9981 36.9319C54.1105 36.9319 59.0674 41.8888 59.0674 48.0011C59.0674 54.1135 54.1105 59.0704 47.9981 59.0704C41.8857 59.0704 36.9287 54.1135 36.9287 48.0011C36.9287 41.8888 41.8857 36.9319 47.9981 36.9319Z" fill="#D00A10"/>
<path fill-rule="evenodd" clip-rule="evenodd" d="M48.0012 31.2483C57.2522 31.2483 64.7542 38.7502 64.7542 48.0008C64.7542 57.2514 57.2522 64.7533 48.0012 64.7533C38.7506 64.7533 31.2485 57.2514 31.2485 48.0008C31.2485 38.7502 38.7506 31.2483 48.0012 31.2483ZM48.0012 33.2448C56.1494 33.2448 62.7573 39.8527 62.7573 48.0008C62.7573 56.1489 56.1498 62.7568 48.0012 62.7568C39.8534 62.7568 33.2455 56.1489 33.2455 48.0008C33.2455 39.8527 39.853 33.2448 48.0012 33.2448Z" fill="#D00A10"/>
<path fill-rule="evenodd" clip-rule="evenodd" d="M47.9998 29.7882C58.0567 29.7882 66.2122 37.9436 66.2122 48C66.2122 58.0565 58.0567 66.2118 47.9998 66.2118C37.9433 66.2118 29.7878 58.0565 29.7878 48C29.7878 37.9436 37.9433 29.7882 47.9998 29.7882ZM47.9998 28C59.0438 28 68 36.9562 68 48C68 59.0438 59.0438 68 47.9998 68C36.9562 68 28 59.0438 28 48C28 36.9562 36.9559 28 47.9998 28Z" fill="#D00A10"/>
</svg>
