<svg width="49" height="49" viewBox="0 0 49 49" fill="none" xmlns="http://www.w3.org/2000/svg">
<g clip-path="url(#clip0_7794_375777)">
<path d="M34.7716 19.4591C35.0591 19.1716 35.2207 18.7816 35.2207 18.375C35.2207 17.9684 35.0591 17.5784 34.7716 17.2909C34.4841 17.0034 34.0941 16.8418 33.6875 16.8418C33.2809 16.8418 32.8909 17.0034 32.6034 17.2909L24.5 25.3973L20.9904 21.8846C20.848 21.7423 20.679 21.6293 20.493 21.5523C20.3069 21.4752 20.1076 21.4356 19.9062 21.4356C19.7049 21.4356 19.5055 21.4752 19.3195 21.5523C19.1335 21.6293 18.9645 21.7423 18.8221 21.8846C18.6797 22.027 18.5668 22.196 18.4898 22.382C18.4127 22.5681 18.373 22.7674 18.373 22.9688C18.373 23.1701 18.4127 23.3695 18.4898 23.5555C18.5668 23.7415 18.6797 23.9105 18.8221 24.0529L23.4159 28.6466C23.5581 28.7892 23.7271 28.9024 23.9131 28.9796C24.0991 29.0568 24.2986 29.0965 24.5 29.0965C24.7014 29.0965 24.9008 29.0568 25.0869 28.9796C25.2729 28.9024 25.4419 28.7892 25.5841 28.6466L34.7716 19.4591Z" fill="#D00A10"/>
<path d="M1.53125 3.0625C1.12514 3.0625 0.735658 3.22383 0.448493 3.51099C0.161328 3.79816 0 4.18764 0 4.59375C0 4.99986 0.161328 5.38934 0.448493 5.67651C0.735658 5.96367 1.12514 6.125 1.53125 6.125H4.93062L6.15869 11.0464L10.7463 35.5005C10.812 35.8514 10.9982 36.1683 11.2728 36.3965C11.5474 36.6246 11.893 36.7497 12.25 36.75H15.3125C13.688 36.75 12.1301 37.3953 10.9815 38.544C9.83281 39.6926 9.1875 41.2505 9.1875 42.875C9.1875 44.4995 9.83281 46.0574 10.9815 47.206C12.1301 48.3547 13.688 49 15.3125 49C16.937 49 18.4949 48.3547 19.6435 47.206C20.7922 46.0574 21.4375 44.4995 21.4375 42.875C21.4375 41.2505 20.7922 39.6926 19.6435 38.544C18.4949 37.3953 16.937 36.75 15.3125 36.75H36.75C35.1255 36.75 33.5676 37.3953 32.419 38.544C31.2703 39.6926 30.625 41.2505 30.625 42.875C30.625 44.4995 31.2703 46.0574 32.419 47.206C33.5676 48.3547 35.1255 49 36.75 49C38.3745 49 39.9324 48.3547 41.081 47.206C42.2297 46.0574 42.875 44.4995 42.875 42.875C42.875 41.2505 42.2297 39.6926 41.081 38.544C39.9324 37.3953 38.3745 36.75 36.75 36.75H39.8125C40.1695 36.7497 40.5151 36.6246 40.7897 36.3965C41.0643 36.1683 41.2505 35.8514 41.3162 35.5005L45.9099 11.0005C45.9513 10.7795 45.9435 10.5521 45.8871 10.3345C45.8307 10.1168 45.727 9.91427 45.5835 9.74121C45.4399 9.56815 45.26 9.42882 45.0566 9.33312C44.8531 9.23743 44.6311 9.18771 44.4062 9.1875H8.85063L7.61031 4.22319C7.52765 3.89178 7.33656 3.59752 7.06743 3.3872C6.79829 3.17689 6.46656 3.06259 6.125 3.0625H1.53125ZM13.5209 33.6875L9.49988 12.25H42.5626L38.5416 33.6875H13.5209ZM18.375 42.875C18.375 43.6872 18.0523 44.4662 17.478 45.0405C16.9037 45.6148 16.1247 45.9375 15.3125 45.9375C14.5003 45.9375 13.7213 45.6148 13.147 45.0405C12.5727 44.4662 12.25 43.6872 12.25 42.875C12.25 42.0628 12.5727 41.2838 13.147 40.7095C13.7213 40.1352 14.5003 39.8125 15.3125 39.8125C16.1247 39.8125 16.9037 40.1352 17.478 40.7095C18.0523 41.2838 18.375 42.0628 18.375 42.875ZM39.8125 42.875C39.8125 43.6872 39.4898 44.4662 38.9155 45.0405C38.3412 45.6148 37.5622 45.9375 36.75 45.9375C35.9378 45.9375 35.1588 45.6148 34.5845 45.0405C34.0102 44.4662 33.6875 43.6872 33.6875 42.875C33.6875 42.0628 34.0102 41.2838 34.5845 40.7095C35.1588 40.1352 35.9378 39.8125 36.75 39.8125C37.5622 39.8125 38.3412 40.1352 38.9155 40.7095C39.4898 41.2838 39.8125 42.0628 39.8125 42.875Z" fill="#D00A10"/>
</g>
<defs>
<clipPath id="clip0_7794_375777">
<rect width="49" height="49" fill="white"/>
</clipPath>
</defs>
</svg>
