<svg width="94" height="64" viewBox="0 0 94 64" fill="none" xmlns="http://www.w3.org/2000/svg">
<path d="M43.6667 46.6342L42.6663 45.5165L43.6667 46.6342ZM49.3194 16.7255L50.6577 16.0481L49.3194 16.7255ZM13.5289 49.0638L14.3382 47.8009C14.7819 48.0852 15.0438 48.5815 15.0282 49.1082L13.5289 49.0638ZM11.145 55.9938V57.4938C10.5391 57.4938 9.99265 57.1293 9.76 56.5698C9.52734 56.0103 9.65417 55.3657 10.0815 54.9361L11.145 55.9938ZM20.0195 52.0124L18.911 51.0019C19.2962 50.5793 19.8883 50.4125 20.4375 50.5719L20.0195 52.0124ZM53.5 28C53.5 35.8486 50.0861 42.9017 44.667 47.7519L42.6663 45.5165C47.4764 41.2114 50.5 34.9598 50.5 28H53.5ZM50.6577 16.0481C52.4761 19.6408 53.5 23.703 53.5 28H50.5C50.5 24.1844 49.5918 20.5852 47.981 17.4029L50.6577 16.0481ZM27 1.5C37.338 1.5 46.2907 7.42006 50.6577 16.0481L47.981 17.4029C44.1049 9.74464 36.1636 4.5 27 4.5V1.5ZM0.5 28C0.5 13.3645 12.3645 1.5 27 1.5V4.5C14.0213 4.5 3.5 15.0213 3.5 28H0.5ZM12.7195 50.3267C5.37363 45.6189 0.5 37.3791 0.5 28H3.5C3.5 36.3143 7.81667 43.6214 14.3382 47.8009L12.7195 50.3267ZM10.0815 54.9361C10.7284 54.2855 11.2205 53.2612 11.5522 52.0835C11.8777 50.9279 12.0071 49.7737 12.0295 49.0193L15.0282 49.1082C14.9997 50.0692 14.8415 51.4708 14.4399 52.8968C14.0445 54.3007 13.3701 55.8837 12.2086 57.0516L10.0815 54.9361ZM21.128 53.023C17.8771 56.589 13.2603 57.4938 11.145 57.4938V54.4938C12.7096 54.4938 16.3998 53.7565 18.911 51.0019L21.128 53.023ZM27 54.5C24.4343 54.5 21.9513 54.1349 19.6014 53.453L20.4375 50.5719C22.5185 51.1758 24.7201 51.5 27 51.5V54.5ZM44.667 47.7519C39.9797 51.9472 33.7862 54.5 27 54.5V51.5C33.0197 51.5 38.5077 49.2386 42.6663 45.5165L44.667 47.7519Z" fill="#D00A10"/>
<path fill-rule="evenodd" clip-rule="evenodd" d="M67 8C53.1929 8 42 19.1929 42 33C42 46.8071 53.1929 58 67 58C69.737 58 72.3713 57.5602 74.836 56.7473C77.6714 59.212 81.2248 59.8875 82.8999 59.8875C81.4326 58.3926 80.7933 55.8668 80.5666 54.0023C87.447 49.5487 92 41.8061 92 33C92 19.1929 80.8071 8 67 8Z" fill="white"/>
<path d="M74.836 56.7473L75.8201 55.6153C75.421 55.2683 74.8686 55.1571 74.3663 55.3228L74.836 56.7473ZM82.8999 59.8875V61.3875C83.5041 61.3875 84.0492 61.025 84.283 60.468C84.5168 59.9109 84.3936 59.2679 83.9704 58.8368L82.8999 59.8875ZM80.5666 54.0023L79.7515 52.7431C79.27 53.0548 79.0083 53.6139 79.0776 54.1833L80.5666 54.0023ZM43.5 33C43.5 20.0213 54.0213 9.5 67 9.5V6.5C52.3645 6.5 40.5 18.3645 40.5 33H43.5ZM67 56.5C54.0213 56.5 43.5 45.9787 43.5 33H40.5C40.5 47.6355 52.3645 59.5 67 59.5V56.5ZM74.3663 55.3228C72.0512 56.0863 69.5754 56.5 67 56.5V59.5C69.8986 59.5 72.6914 59.0341 75.3058 58.1718L74.3663 55.3228ZM73.852 57.8794C77.0219 60.635 80.9542 61.3875 82.8999 61.3875V58.3875C81.4955 58.3875 78.3209 57.7891 75.8201 55.6153L73.852 57.8794ZM83.9704 58.8368C82.8696 57.7152 82.2746 55.6219 82.0556 53.8213L79.0776 54.1833C79.312 56.1117 79.9957 59.07 81.8294 60.9382L83.9704 58.8368ZM90.5 33C90.5 41.2761 86.2229 48.5542 79.7515 52.7431L81.3817 55.2615C88.671 50.5432 93.5 42.336 93.5 33H90.5ZM67 9.5C79.9787 9.5 90.5 20.0213 90.5 33H93.5C93.5 18.3645 81.6355 6.5 67 6.5V9.5Z" fill="#D00A10"/>
<rect x="54" y="29" width="25" height="3" rx="1.5" fill="#D00A10"/>
<rect x="54" y="36" width="18" height="3" rx="1.5" fill="#D00A10"/>
<circle cx="19" cy="28" r="2" fill="#D00A10"/>
<circle cx="27" cy="28" r="2" fill="#D00A10"/>
<circle cx="35" cy="28" r="2" fill="#D00A10"/>
</svg>
