<svg width="24" height="24" viewBox="0 0 24 24" fill="none" xmlns="http://www.w3.org/2000/svg">
<path fill-rule="evenodd" clip-rule="evenodd" d="M11 3.5C11 2.67157 11.6716 2 12.5 2C13.3284 2 14 2.67157 14 3.5V20.5C14 21.3284 13.3284 22 12.5 22C11.6716 22 11 21.3284 11 20.5V3.5ZM5 13.5C5 12.6716 5.67157 12 6.5 12C7.32843 12 8 12.6716 8 13.5V20.5C8 21.3284 7.32843 22 6.5 22C5.67157 22 5 21.3284 5 20.5V13.5ZM18.5 7C17.6716 7 17 7.67157 17 8.5V20.5C17 21.3284 17.6716 22 18.5 22C19.3284 22 20 21.3284 20 20.5V8.5C20 7.67157 19.3284 7 18.5 7Z" fill="white"/>
</svg>
