<svg width="32" height="32" viewBox="0 0 32 32" fill="none" xmlns="http://www.w3.org/2000/svg">
<path d="M32 16C32 24.8366 24.8366 32 16 32C7.16344 32 0 24.8366 0 16C0 7.16344 7.16344 0 16 0C24.8366 0 32 7.16344 32 16Z" fill="white"/>
<path d="M13.6004 23.2001C13.6004 24.0838 12.884 24.8001 12.0004 24.8001C11.1167 24.8001 10.4004 24.0838 10.4004 23.2001C10.4004 22.3164 11.1167 21.6001 12.0004 21.6001C12.884 21.6001 13.6004 22.3164 13.6004 23.2001Z" fill="#D00A10"/>
<path d="M22.4002 23.2001C22.4002 24.0838 21.6839 24.8001 20.8002 24.8001C19.9165 24.8001 19.2002 24.0838 19.2002 23.2001C19.2002 22.3164 19.9165 21.6001 20.8002 21.6001C21.6839 21.6001 22.4002 22.3164 22.4002 23.2001Z" fill="#D00A10"/>
<path d="M22.8 17.1999L24 12.3999H12L13.6 19.1999L22.8 17.1999Z" fill="#D00A10"/>
<path fill-rule="evenodd" clip-rule="evenodd" d="M7.2177 9.43398C7.29614 9.06438 7.62245 8.80005 8.00027 8.80005H11.2003C11.5674 8.80005 11.8874 9.04989 11.9764 9.40602L12.5249 11.6H24.0003C24.2466 11.6 24.4792 11.7135 24.6308 11.9077C24.7824 12.1019 24.8361 12.3551 24.7764 12.5941L23.5764 17.3941C23.5026 17.6893 23.2676 17.9171 22.9702 17.9818L13.7702 19.9818C13.3479 20.0736 12.929 19.8134 12.8242 19.3941L10.9188 11.7726L7.67536 10.3311C7.3301 10.1776 7.13927 9.80357 7.2177 9.43398ZM12.9249 13.2L14.1883 18.2535L22.1447 16.5239L22.9757 13.2H12.9249Z" fill="#D00A10"/>
</svg>
