<svg width="24" height="24" viewBox="0 0 24 24" fill="none" xmlns="http://www.w3.org/2000/svg">
<path fill-rule="evenodd" clip-rule="evenodd" d="M4.8936 6.46396C4.612 6.71973 4.53096 7.12965 4.69405 7.47333L7.24668 12.8523C7.28306 12.929 7.33054 12.9999 7.38759 13.0627L14.411 20.7956C14.7317 21.1486 15.2778 21.1749 15.6308 20.8542L23.3009 13.8878C23.6539 13.5672 23.6801 13.0211 23.3595 12.6681L16.336 4.9352C16.279 4.87239 16.213 4.81833 16.1402 4.77477L11.0309 1.71789C10.7044 1.52258 10.2886 1.56392 10.007 1.81968L4.8936 6.46396Z" fill="white"/>
<path fill-rule="evenodd" clip-rule="evenodd" d="M8.05091 6.8336C8.01096 6.31974 8.20049 5.79353 8.61156 5.42017C9.31757 4.77893 10.4097 4.83144 11.051 5.53746C11.6922 6.24347 11.6397 7.33563 10.9337 7.97688C10.5309 8.34275 10.0023 8.48278 9.50354 8.40442C8.13762 8.32716 6.67583 9.13353 5.14776 10.917L3.83635 9.7934C5.08989 8.33035 6.50449 7.23117 8.05091 6.8336Z" fill="#D00A10"/>
<path fill-rule="evenodd" clip-rule="evenodd" d="M2.34672 14.7305C2.37033 15.0124 2.45485 15.1209 2.50471 15.1636C2.55458 15.2063 2.67474 15.2732 2.95691 15.2533C3.24428 15.233 3.63296 15.1241 4.10432 14.892C5.04404 14.4294 6.15837 13.5534 7.18693 12.353C7.4972 11.9908 8.0423 11.9488 8.40443 12.2591C8.76657 12.5694 8.80861 13.1145 8.49833 13.4766C7.35496 14.8111 6.06264 15.8528 4.86708 16.4414C4.2708 16.7349 3.65968 16.935 3.07837 16.976C2.49185 17.0173 1.87444 16.8977 1.38111 16.475C0.887772 16.0523 0.674891 15.4605 0.625819 14.8746C0.577182 14.2939 0.681151 13.6593 0.879803 13.0251C1.27811 11.7534 2.10935 10.3166 3.25272 8.98217C5.08149 6.84773 7.65736 5.53969 9.90048 5.78096C10.3746 5.83196 10.7176 6.25767 10.6666 6.73181C10.6157 7.20595 10.1899 7.54898 9.7158 7.49798C8.22192 7.33729 6.16117 8.2418 4.56412 10.1058C3.53557 11.3062 2.84085 12.5417 2.52778 13.5413C2.37075 14.0426 2.32267 14.4434 2.34672 14.7305Z" fill="white"/>
<path d="M11.6663 14.0223C11.9961 13.7228 12.363 13.2636 12.3786 12.6336C12.3878 12.2893 12.2904 11.8738 11.9351 11.4826C11.5589 11.0684 11.1464 10.9533 10.8467 10.9315C10.4445 10.9048 9.94054 11.0126 9.38829 11.5142C9.09683 11.7789 8.67842 12.243 8.68369 12.896C8.67933 13.2919 8.85687 13.7186 9.15643 14.0484C9.44205 14.3629 9.79255 14.5484 10.2309 14.5842C10.8596 14.6291 11.3135 14.3428 11.6663 14.0223ZM14.0606 16.7048L14.7203 16.1057L13.042 8.2937L12.3747 8.89978L14.0606 16.7048ZM10.0167 12.1753C10.1624 12.0429 10.3276 11.9628 10.5402 11.9657C10.7674 11.9693 10.9751 12.0746 11.1144 12.228C11.2607 12.3891 11.331 12.6052 11.3219 12.7955C11.3057 12.9781 11.215 13.1864 11.0616 13.3258C10.9082 13.4651 10.7291 13.5298 10.5604 13.5291C10.3548 13.5339 10.1241 13.4494 9.9639 13.273C9.83154 13.1273 9.75286 12.9328 9.75505 12.7348C9.75652 12.5515 9.84026 12.3355 10.0167 12.1753ZM16.0487 11.6657C16.1944 11.5334 16.3596 11.4533 16.5722 11.4562C16.7994 11.4598 17.0071 11.5651 17.1464 11.7185C17.2927 11.8796 17.363 12.0957 17.3539 12.286C17.3378 12.4686 17.247 12.6769 17.0936 12.8162C16.9402 12.9556 16.7611 13.0203 16.5924 13.0195C16.3868 13.0243 16.1561 12.9399 15.9959 12.7635C15.8635 12.6177 15.7849 12.4232 15.7871 12.2253C15.7885 12.042 15.8723 11.826 16.0487 11.6657ZM17.6983 13.5128C18.0281 13.2133 18.395 12.7541 18.4106 12.124C18.4198 11.7797 18.3224 11.3643 17.9671 10.9731C17.5909 10.5589 17.1784 10.4437 16.8787 10.422C16.4765 10.3953 15.9725 10.5031 15.4203 11.0047C15.1288 11.2694 14.7104 11.7334 14.7157 12.3865C14.7113 12.7824 14.8889 13.209 15.1884 13.5389C15.4741 13.8533 15.8246 14.0389 16.263 14.0746C16.8916 14.1195 17.3455 13.8333 17.6983 13.5128Z" fill="#D00A10"/>
</svg>
