<svg width="18" height="16" viewBox="0 0 18 16" fill="none" xmlns="http://www.w3.org/2000/svg">
<path fill-rule="evenodd" clip-rule="evenodd" d="M9.99623 14C13.31 14 15.9962 11.3137 15.9962 8C15.9962 4.68628 13.31 2 9.99623 2C6.85091 2 4.27083 4.42017 4.01674 7.5H5.47913C5.7464 7.5 5.88025 7.82314 5.69127 8.01213L3.34986 10.3536C3.1546 10.5489 2.838 10.5488 2.64274 10.3536L0.301364 8.01214C0.112369 7.82315 0.246218 7.5 0.513493 7.5H2.01162C2.26973 3.31458 5.74587 0 9.99623 0C14.4145 0 17.9962 3.58167 17.9962 8C17.9962 12.4183 14.4145 16 9.99623 16C7.40224 16 5.09658 14.7654 3.63485 12.8517L5.06606 11.4205C6.14968 12.9795 7.95375 14 9.99623 14ZM11.0001 5C11.0001 4.44772 10.5524 4 10.0001 4C9.44786 4 9.00014 4.44772 9.00014 5V8.25C9.00014 8.72214 9.22243 9.16672 9.60014 9.45L11.4001 10.8C11.842 11.1314 12.4688 11.0418 12.8001 10.6C13.1315 10.1582 13.042 9.53137 12.6001 9.2L11.0001 8V5Z" fill="#A4A4A5"/>
</svg>
