<svg width="16" height="16" viewBox="0 0 16 16" fill="none" xmlns="http://www.w3.org/2000/svg">
<path d="M15.1111 11.1111C14 11.1111 12.9333 10.9333 11.9378 10.6044C11.6267 10.5067 11.28 10.5778 11.0311 10.8178L9.07556 12.7733C6.56 11.4933 4.49778 9.44 3.21778 6.92444L5.17333 4.96C5.42222 4.72 5.49333 4.37333 5.39556 4.06222C5.06667 3.06667 4.88889 2 4.88889 0.888889C4.88889 0.4 4.48889 0 4 0H0.888889C0.4 0 0 0.4 0 0.888889C0 9.23556 6.76444 16 15.1111 16C15.6 16 16 15.6 16 15.1111V12C16 11.5111 15.6 11.1111 15.1111 11.1111Z" fill="#696663"/>
</svg>
