<svg width="16" height="16" viewBox="0 0 16 16" fill="none" xmlns="http://www.w3.org/2000/svg">
<g clip-path="url(#clip0)">
<path d="M15.4367 9.26202C15.9141 5.24402 15.2074 2.70735 13.9327 1.56002L13.9334 1.55935C11.8761 -0.399984 4.92805 -0.689984 2.46672 1.64735C1.36139 2.79068 0.972053 4.46868 0.929386 6.54602C0.88672 8.62402 0.836053 12.5167 4.46339 13.5727H4.46672L4.46339 15.1853C4.46339 15.1853 4.43872 15.8387 4.85605 15.97C5.33339 16.1247 5.54939 15.8213 7.03405 14.048C9.51672 14.2633 11.4234 13.77 11.6401 13.698C12.1414 13.53 14.9781 13.1547 15.4367 9.26202ZM7.27872 12.9134C7.27872 12.9134 5.70739 14.8727 5.21872 15.3813C5.05872 15.5467 4.88339 15.5313 4.88605 15.2033C4.88605 14.988 4.89805 12.526 4.89805 12.526C1.82272 11.6447 2.00405 8.33002 2.03739 6.59602C2.07072 4.86135 2.38805 3.44068 3.32405 2.48402C5.48339 0.45935 11.5747 0.912016 13.1267 2.37068C15.0241 4.05268 14.3487 8.80468 14.3527 8.96668C13.9627 12.216 11.6641 12.422 11.2414 12.5627C11.0607 12.6227 9.38405 13.054 7.27872 12.9134Z" fill="#A4A4A5"/>
<path d="M8.14807 2.86475C7.8914 2.86475 7.8914 3.26475 8.14807 3.26808C10.1394 3.28341 11.7794 4.67141 11.7974 7.21741C11.7974 7.48608 12.1907 7.48275 12.1874 7.21408H12.1867C12.1654 4.47075 10.3747 2.88008 8.14807 2.86475Z" fill="#A4A4A5"/>
<path d="M10.7675 6.79536C10.7615 7.06069 11.1541 7.07336 11.1575 6.80469C11.1901 5.29202 10.2575 4.04602 8.50479 3.91469C8.24812 3.89602 8.22146 4.29936 8.47746 4.31802C9.99746 4.43336 10.7981 5.47069 10.7675 6.79536Z" fill="#A4A4A5"/>
<path d="M10.3478 8.51591C10.0185 8.32524 9.68313 8.44391 9.54446 8.63124L9.25446 9.00657C9.10713 9.19724 8.8318 9.17191 8.8318 9.17191C6.82246 8.64057 6.28513 6.53791 6.28513 6.53791C6.28513 6.53791 6.26047 6.25324 6.44447 6.10057L6.80713 5.80057C6.98847 5.65657 7.10313 5.30991 6.91846 4.96924C6.42513 4.07791 6.0938 3.77057 5.92513 3.53457C5.7478 3.31257 5.48113 3.26257 5.2038 3.41257H5.1978C4.62113 3.74991 3.9898 4.38124 4.1918 5.03124C4.53647 5.71657 5.1698 7.90124 7.18846 9.55191C8.13713 10.3326 9.63846 11.1326 10.2758 11.3172L10.2818 11.3266C10.9098 11.5359 11.5205 10.8799 11.8465 10.2859V10.2812C11.9911 9.99391 11.9431 9.72191 11.7318 9.54391C11.3571 9.17857 10.7918 8.77524 10.3478 8.51591Z" fill="#A4A4A5"/>
<path d="M8.77891 5.40278C9.41958 5.44012 9.73025 5.77479 9.76358 6.46212C9.77558 6.73079 10.1656 6.71212 10.1536 6.44345C10.1109 5.54612 9.64292 5.04612 8.80024 4.99945C8.54358 4.98412 8.51958 5.38745 8.77891 5.40278Z" fill="#A4A4A5"/>
</g>
<defs>
<clipPath id="clip0">
<rect width="16" height="16" fill="white"/>
</clipPath>
</defs>
</svg>
