<svg width="10" height="15" viewBox="0 0 10 15" fill="none" xmlns="http://www.w3.org/2000/svg">
<path fill-rule="evenodd" clip-rule="evenodd" d="M9.58396 7C9.85155 6.38754 10 5.7111 10 5C10 2.23858 7.76142 0 5 0C2.23858 0 0 2.23858 0 5C0 5.7111 0.148448 6.38754 0.416044 7L4.10569 14.4472C4.27508 14.786 4.62134 15 5.00011 15C5.37889 15 5.72515 14.786 5.89454 14.4472L9.58396 7ZM5 7C6.10457 7 7 6.10457 7 5C7 3.89543 6.10457 3 5 3C3.89543 3 3 3.89543 3 5C3 6.10457 3.89543 7 5 7Z" fill="white"/>
</svg>
