<svg width="16" height="16" viewBox="0 0 16 16" fill="none" xmlns="http://www.w3.org/2000/svg">
<path d="M15.1841 4.25079C15.0112 3.60818 14.5046 3.10162 13.8621 2.92859C12.6883 2.60742 7.99298 2.60742 7.99298 2.60742C7.99298 2.60742 3.29788 2.60742 2.12408 2.91641C1.49393 3.08926 0.974914 3.60828 0.802063 4.25079C0.493164 5.4245 0.493164 7.85861 0.493164 7.85861C0.493164 7.85861 0.493164 10.305 0.802063 11.4664C0.975098 12.1089 1.48157 12.6155 2.12418 12.7885C3.31024 13.1098 7.99316 13.1098 7.99316 13.1098C7.99316 13.1098 12.6883 13.1098 13.8621 12.8008C14.5047 12.6279 15.0112 12.1213 15.1843 11.4788C15.4931 10.305 15.4931 7.87097 15.4931 7.87097C15.4931 7.87097 15.5054 5.4245 15.1841 4.25079ZM6.49811 10.1073V5.60989L10.4025 7.85861L6.49811 10.1073Z" fill="#A4A4A5"/>
</svg>
