<svg width="16" height="16" viewBox="0 0 16 16" fill="none" xmlns="http://www.w3.org/2000/svg">
<path d="M15 4.3913C15 2.51834 13.433 1 11.5 1C9.567 1 8.5 2 8 3C7.5 2 6.433 1 4.5 1C2.567 1 1 2.51834 1 4.3913C1 8.74725 5.66667 12.6121 8 14C10.3333 12.5053 15 8.49101 15 4.3913Z" fill="#A4A4A5"/>
<path fill-rule="evenodd" clip-rule="evenodd" d="M0 4.3913C0 1.93655 2.04469 0 4.5 0C6.07643 0 7.22085 0.562156 8 1.32371C8.77915 0.562156 9.92357 0 11.5 0C13.9553 0 16 1.93655 16 4.3913C16 6.80024 14.6457 9.05843 13.1345 10.823C11.6026 12.6118 9.77448 14.0509 8.5394 14.842C8.2207 15.0462 7.81406 15.0529 7.48878 14.8594C6.2443 14.1192 4.40751 12.74 2.86902 10.9633C1.3438 9.20182 0 6.91903 0 4.3913ZM4.5 2C3.08932 2 2 3.10013 2 4.3913C2 6.21952 2.98953 8.04712 4.38098 9.65406C5.55116 11.0055 6.92683 12.1086 7.98194 12.8072C9.0464 12.0593 10.4352 10.9003 11.6155 9.52207C13.021 7.88089 14 6.08208 14 4.3913C14 3.10013 12.9107 2 11.5 2C9.9881 2 9.24483 2.74641 8.89443 3.44721C8.72503 3.786 8.37877 4 8 4C7.62123 4 7.27496 3.786 7.10557 3.44721C6.75517 2.74641 6.0119 2 4.5 2Z" fill="#A4A4A5"/>
</svg>
