<svg width="16" height="16" viewBox="0 0 16 16" fill="none" xmlns="http://www.w3.org/2000/svg">
<path fill-rule="evenodd" clip-rule="evenodd" d="M12.584 8C12.8516 7.38754 13 6.7111 13 6C13 3.23858 10.7614 1 8 1C5.23858 1 3 3.23858 3 6C3 6.7111 3.14845 7.38754 3.41604 8L7.10569 15.4472C7.27508 15.786 7.62134 16 8.00011 16C8.37889 16 8.72515 15.786 8.89454 15.4472L12.584 8ZM8 8C9.10457 8 10 7.10457 10 6C10 4.89543 9.10457 4 8 4C6.89543 4 6 4.89543 6 6C6 7.10457 6.89543 8 8 8Z" fill="#A4A4A5"/>
</svg>
