<svg width="16" height="16" viewBox="0 0 16 16" fill="none" xmlns="http://www.w3.org/2000/svg">
<path fill-rule="evenodd" clip-rule="evenodd" d="M15 8C15 11.866 11.866 15 8 15C4.13401 15 1 11.866 1 8C1 4.13401 4.13401 1 8 1C11.866 1 15 4.13401 15 8ZM9 5C9 4.44772 8.55228 4 8 4C7.44772 4 7 4.44772 7 5V9C7 9.32144 7.15452 9.62329 7.41529 9.81124C7.67606 9.99919 8.01128 10.0503 8.31623 9.94868L11.3162 8.94868C11.8402 8.77404 12.1233 8.20772 11.9487 7.68377C11.774 7.15983 11.2077 6.87667 10.6838 7.05132L9 7.61257V5Z" fill="#A4A4A5"/>
</svg>
