<svg width="16" height="16" viewBox="0 0 16 16" fill="none" xmlns="http://www.w3.org/2000/svg">
<mask id="path-1-inside-1" fill="white">
<path d="M9.99993 15.191V8L15.3999 0.8C15.6471 0.470382 15.412 0 14.9999 0H0.999931C0.587909 0 0.352717 0.470382 0.599932 0.8L5.99993 8V13.691C5.99993 13.8804 6.10693 14.0535 6.27632 14.1382L9.27632 15.6382C9.60878 15.8044 9.99993 15.5627 9.99993 15.191Z"/>
</mask>
<path d="M9.99993 15.191V8L15.3999 0.8C15.6471 0.470382 15.412 0 14.9999 0H0.999931C0.587909 0 0.352717 0.470382 0.599932 0.8L5.99993 8V13.691C5.99993 13.8804 6.10693 14.0535 6.27632 14.1382L9.27632 15.6382C9.60878 15.8044 9.99993 15.5627 9.99993 15.191Z" fill="#A4A4A5"/>
<path d="M9.99993 8L8.39993 6.8L7.99993 7.33333V8H9.99993ZM9.27632 15.6382L8.3819 17.4271L8.3819 17.4271L9.27632 15.6382ZM6.27632 14.1382L5.38189 15.927L5.3819 15.9271L6.27632 14.1382ZM5.99993 8H7.99993V7.33333L7.59993 6.8L5.99993 8ZM15.3999 0.8L13.7999 -0.4L15.3999 0.8ZM0.599932 0.8L2.19993 -0.4L2.19993 -0.400002L0.599932 0.8ZM7.99993 8V15.191H11.9999V8H7.99993ZM10.1708 13.8493L7.17075 12.3493L5.3819 15.9271L8.3819 17.4271L10.1708 13.8493ZM7.99993 13.691V8H3.99993V13.691H7.99993ZM0.999931 2H14.9999V-2H0.999931V2ZM13.7999 -0.4L8.39993 6.8L11.5999 9.2L16.9999 2L13.7999 -0.4ZM-1.00007 2L4.39993 9.2L7.59993 6.8L2.19993 -0.4L-1.00007 2ZM7.17076 12.3493C7.67893 12.6034 7.99993 13.1228 7.99993 13.691H3.99993C3.99993 14.6379 4.53494 15.5036 5.38189 15.927L7.17076 12.3493ZM7.99993 15.191C7.99993 14.0759 9.1734 13.3507 10.1707 13.8493L8.3819 17.4271C10.0441 18.2582 11.9999 17.0494 11.9999 15.191H7.99993ZM0.999931 -2C-1.06018 -2 -2.23614 0.351909 -1.00007 2L2.19993 -0.400002C2.94158 0.588855 2.236 2 0.999931 2V-2ZM14.9999 2C13.7639 2 13.0583 0.588854 13.7999 -0.4L16.9999 2C18.236 0.351909 17.06 -2 14.9999 -2V2Z" fill="#A4A4A5" mask="url(#path-1-inside-1)"/>
</svg>
