<svg width="16" height="17" viewBox="0 0 16 17" fill="none" xmlns="http://www.w3.org/2000/svg">
<path fill-rule="evenodd" clip-rule="evenodd" d="M3.47009 7.65185L11.4701 2.65186L12.5301 4.34785L5.88689 8.49985L12.5301 12.6519L11.4701 14.3479L3.47009 9.34785V7.65185Z" fill="#A4A4A5"/>
<path d="M16.0001 3.5C16.0001 5.15685 14.657 6.5 13.0001 6.5C11.3433 6.5 10.0001 5.15685 10.0001 3.5C10.0001 1.84315 11.3433 0.5 13.0001 0.5C14.657 0.5 16.0001 1.84315 16.0001 3.5Z" fill="#F4F4F4"/>
<path fill-rule="evenodd" clip-rule="evenodd" d="M13.0001 4.5C13.5524 4.5 14.0001 4.05228 14.0001 3.5C14.0001 2.94772 13.5524 2.5 13.0001 2.5C12.4478 2.5 12.0001 2.94772 12.0001 3.5C12.0001 4.05228 12.4478 4.5 13.0001 4.5ZM13.0001 6.5C14.657 6.5 16.0001 5.15685 16.0001 3.5C16.0001 1.84315 14.657 0.5 13.0001 0.5C11.3433 0.5 10.0001 1.84315 10.0001 3.5C10.0001 5.15685 11.3433 6.5 13.0001 6.5Z" fill="#A4A4A5"/>
<path d="M16.0001 13.5C16.0001 15.1569 14.657 16.5 13.0001 16.5C11.3433 16.5 10.0001 15.1569 10.0001 13.5C10.0001 11.8431 11.3433 10.5 13.0001 10.5C14.657 10.5 16.0001 11.8431 16.0001 13.5Z" fill="#F4F4F4"/>
<path fill-rule="evenodd" clip-rule="evenodd" d="M13.0001 14.5C13.5524 14.5 14.0001 14.0523 14.0001 13.5C14.0001 12.9477 13.5524 12.5 13.0001 12.5C12.4478 12.5 12.0001 12.9477 12.0001 13.5C12.0001 14.0523 12.4478 14.5 13.0001 14.5ZM13.0001 16.5C14.657 16.5 16.0001 15.1569 16.0001 13.5C16.0001 11.8431 14.657 10.5 13.0001 10.5C11.3433 10.5 10.0001 11.8431 10.0001 13.5C10.0001 15.1569 11.3433 16.5 13.0001 16.5Z" fill="#A4A4A5"/>
<path d="M6.00012 8.5C6.00012 10.1569 4.65698 11.5 3.00012 11.5C1.34327 11.5 0.00012207 10.1569 0.00012207 8.5C0.00012207 6.84315 1.34327 5.5 3.00012 5.5C4.65698 5.5 6.00012 6.84315 6.00012 8.5Z" fill="#F4F4F4"/>
<path fill-rule="evenodd" clip-rule="evenodd" d="M3.00012 9.5C3.55241 9.5 4.00012 9.05228 4.00012 8.5C4.00012 7.94772 3.55241 7.5 3.00012 7.5C2.44784 7.5 2.00012 7.94772 2.00012 8.5C2.00012 9.05228 2.44784 9.5 3.00012 9.5ZM3.00012 11.5C4.65698 11.5 6.00012 10.1569 6.00012 8.5C6.00012 6.84315 4.65698 5.5 3.00012 5.5C1.34327 5.5 0.00012207 6.84315 0.00012207 8.5C0.00012207 10.1569 1.34327 11.5 3.00012 11.5Z" fill="#A4A4A5"/>
<path fill-rule="evenodd" clip-rule="evenodd" d="M13.0001 4.5C13.5524 4.5 14.0001 4.05228 14.0001 3.5C14.0001 2.94772 13.5524 2.5 13.0001 2.5C12.4478 2.5 12.0001 2.94772 12.0001 3.5C12.0001 4.05228 12.4478 4.5 13.0001 4.5ZM13.0001 6.5C14.657 6.5 16.0001 5.15685 16.0001 3.5C16.0001 1.84315 14.657 0.5 13.0001 0.5C11.3433 0.5 10.0001 1.84315 10.0001 3.5C10.0001 5.15685 11.3433 6.5 13.0001 6.5Z" fill="#A4A4A5"/>
<path fill-rule="evenodd" clip-rule="evenodd" d="M13.0001 14.5C13.5524 14.5 14.0001 14.0523 14.0001 13.5C14.0001 12.9477 13.5524 12.5 13.0001 12.5C12.4478 12.5 12.0001 12.9477 12.0001 13.5C12.0001 14.0523 12.4478 14.5 13.0001 14.5ZM13.0001 16.5C14.657 16.5 16.0001 15.1569 16.0001 13.5C16.0001 11.8431 14.657 10.5 13.0001 10.5C11.3433 10.5 10.0001 11.8431 10.0001 13.5C10.0001 15.1569 11.3433 16.5 13.0001 16.5Z" fill="#A4A4A5"/>
<path fill-rule="evenodd" clip-rule="evenodd" d="M3.00012 9.5C3.55241 9.5 4.00012 9.05228 4.00012 8.5C4.00012 7.94772 3.55241 7.5 3.00012 7.5C2.44784 7.5 2.00012 7.94772 2.00012 8.5C2.00012 9.05228 2.44784 9.5 3.00012 9.5ZM3.00012 11.5C4.65698 11.5 6.00012 10.1569 6.00012 8.5C6.00012 6.84315 4.65698 5.5 3.00012 5.5C1.34327 5.5 0.00012207 6.84315 0.00012207 8.5C0.00012207 10.1569 1.34327 11.5 3.00012 11.5Z" fill="#A4A4A5"/>
</svg>
