<svg width="16" height="16" viewBox="0 0 16 16" fill="none" xmlns="http://www.w3.org/2000/svg">
<path fill-rule="evenodd" clip-rule="evenodd" d="M0 4.8913C0 2.43655 2.04469 0.5 4.5 0.5C6.07643 0.5 7.22085 1.06216 8 1.82371C8.77915 1.06216 9.92357 0.5 11.5 0.5C13.9553 0.5 16 2.43655 16 4.8913C16 7.30024 14.6457 9.55843 13.1345 11.323C11.6026 13.1118 9.77448 14.5509 8.5394 15.342C8.2207 15.5462 7.81406 15.5529 7.48878 15.3594C6.2443 14.6192 4.40751 13.24 2.86902 11.4633C1.3438 9.70182 0 7.41903 0 4.8913ZM4.5 2.5C3.08932 2.5 2 3.60013 2 4.8913C2 6.71952 2.98953 8.54712 4.38098 10.1541C5.55116 11.5055 6.92683 12.6086 7.98194 13.3072C9.0464 12.5593 10.4352 11.4003 11.6155 10.0221C13.021 8.38089 14 6.58208 14 4.8913C14 3.60013 12.9107 2.5 11.5 2.5C9.9881 2.5 9.24483 3.24641 8.89443 3.94721C8.72503 4.286 8.37877 4.5 8 4.5C7.62123 4.5 7.27496 4.286 7.10557 3.94721C6.75517 3.24641 6.0119 2.5 4.5 2.5Z" fill="#A4A4A5"/>
</svg>
