<svg width="16" height="16" viewBox="0 0 16 16" fill="none" xmlns="http://www.w3.org/2000/svg">
<path fill-rule="evenodd" clip-rule="evenodd" d="M7.55279 1.10557L2.27301 3.74546L8 7.01802L13.727 3.74546L8.44721 1.10557C8.16569 0.964809 7.83431 0.964809 7.55279 1.10557ZM1 5C1 4.91871 1.00986 4.83891 1.02869 4.76204L7.25 8.31708V15.4534L1.50386 12.1699C1.19229 11.9918 1 11.6605 1 11.3016V5ZM14.4961 12.1699L8.75 15.4534V8.31708L14.9713 4.76204C14.9901 4.83891 15 4.91871 15 5V11.3016C15 11.6605 14.8077 11.9918 14.4961 12.1699ZM10 9.18184L14 6.88184V7.88184V8.38184L10 10.6818V9.18184Z" fill="#A4A4A5"/>
</svg>
