<svg width="16" height="16" viewBox="0 0 16 16" fill="none" xmlns="http://www.w3.org/2000/svg">
<g clip-path="url(#clip0)">
<path fill-rule="evenodd" clip-rule="evenodd" d="M8 -4.37114e-08C8.55228 -1.95703e-08 9 0.447715 9 1L9 15C9 15.5523 8.55228 16 8 16C7.44771 16 7 15.5523 7 15L7 1C7 0.447715 7.44772 -6.78525e-08 8 -4.37114e-08Z" fill="#A4A4A5"/>
<path fill-rule="evenodd" clip-rule="evenodd" d="M13.7071 6.70711C13.3166 7.09763 12.6834 7.09763 12.2929 6.70711L8 2.41421L3.70711 6.70711C3.31658 7.09763 2.68342 7.09763 2.29289 6.70711C1.90237 6.31658 1.90237 5.68342 2.29289 5.29289L7.29289 0.292893C7.68342 -0.0976314 8.31658 -0.0976313 8.70711 0.292893L13.7071 5.29289C14.0976 5.68342 14.0976 6.31658 13.7071 6.70711Z" fill="#A4A4A5"/>
</g>
<defs>
<clipPath id="clip0">
<rect width="16" height="16" fill="white"/>
</clipPath>
</defs>
</svg>
