<svg width="16" height="16" viewBox="0 0 16 16" fill="#A4A4A5" xmlns="http://www.w3.org/2000/svg">
<path fill-rule="evenodd" clip-rule="evenodd" d="M8 16C12.4183 16 16 12.4183 16 8C16 3.58172 12.4183 0 8 0C3.58172 0 0 3.58172 0 8C0 12.4183 3.58172 16 8 16ZM6.65457 9.79H8.84457V8.53C9.53457 8.43 10.1046 8.135 10.5546 7.645C11.0546 7.105 11.3046 6.47 11.3046 5.74C11.3046 4.91 11.0246 4.22 10.4646 3.67C9.84457 3.07 9.01957 2.77 7.98957 2.77C6.92957 2.77 6.10457 3.075 5.51457 3.685C4.97457 4.245 4.69957 4.935 4.68957 5.755H6.99957C6.97957 5.395 7.06457 5.115 7.25457 4.915C7.44457 4.725 7.69957 4.63 8.01957 4.63C8.31957 4.63 8.55957 4.725 8.73957 4.915C8.92957 5.125 9.02457 5.38 9.02457 5.68C9.02457 6.1 8.87457 6.445 8.57457 6.715C8.35457 6.905 8.05957 7.025 7.68957 7.075C7.31957 7.125 6.97457 7.11 6.65457 7.03V9.79ZM6.44457 11.86C6.44457 12.24 6.57457 12.565 6.83457 12.835C7.10457 13.095 7.42957 13.225 7.80957 13.225C8.18957 13.225 8.50957 13.095 8.76957 12.835C9.03957 12.565 9.17457 12.24 9.17457 11.86C9.17457 11.48 9.03957 11.16 8.76957 10.9C8.50957 10.63 8.18957 10.495 7.80957 10.495C7.42957 10.495 7.10457 10.63 6.83457 10.9C6.57457 11.16 6.44457 11.48 6.44457 11.86Z"/>
</svg>
