<svg width="20" height="20" viewBox="0 0 20 20" xmlns="http://www.w3.org/2000/svg" fill="#A4A4A5" stroke="#A4A4A5">
    <mask id="path-1-inside-1_7788_370305" fill="">
        <path d="M17 18V8.45993C17 8.16801 16.8724 7.89066 16.6508 7.70068L10.6508 2.55782C10.2763 2.23683 9.7237 2.23683 9.34921 2.55782L3.34921 7.70068C3.12756 7.89066 3 8.16801 3 8.45994V18C3 18.5523 3.44772 19 4 19H7C7.55228 19 8 18.5523 8 18V14C8 12.8954 8.89543 12 10 12C11.1046 12 12 12.8954 12 14V18C12 18.5523 12.4477 19 13 19H16C16.5523 19 17 18.5523 17 18Z"/>
    </mask>
    <path d="M17 18V8.45993C17 8.16801 16.8724 7.89066 16.6508 7.70068L10.6508 2.55782C10.2763 2.23683 9.7237 2.23683 9.34921 2.55782L3.34921 7.70068C3.12756 7.89066 3 8.16801 3 8.45994V18C3 18.5523 3.44772 19 4 19H7C7.55228 19 8 18.5523 8 18V14C8 12.8954 8.89543 12 10 12C11.1046 12 12 12.8954 12 14V18C12 18.5523 12.4477 19 13 19H16C16.5523 19 17 18.5523 17 18Z" fill=""/>
    <path d="M16.6508 7.70068L15.3492 9.21919L15.3492 9.21919L16.6508 7.70068ZM10.6508 2.55782L9.34921 4.07633L9.34921 4.07633L10.6508 2.55782ZM9.34921 2.55782L8.04763 1.03931L8.04763 1.03931L9.34921 2.55782ZM3.34921 7.70068L2.04763 6.18216L2.04763 6.18217L3.34921 7.70068ZM15 8.45993V18H19V8.45993H15ZM5 18V8.45994H1V18H5ZM17.9524 6.18217L11.9524 1.03931L9.34921 4.07633L15.3492 9.21919L17.9524 6.18217ZM8.04763 1.03931L2.04763 6.18216L4.65079 9.21919L10.6508 4.07633L8.04763 1.03931ZM7 17H4V21H7V17ZM16 17H13V21H16V17ZM14 18V14H10V18H14ZM6 14V18H10V14H6ZM10 10C7.79086 10 6 11.7909 6 14H10V10ZM14 14C14 11.7909 12.2091 10 10 10V14H14ZM13 17C13.5523 17 14 17.4477 14 18H10C10 19.6569 11.3431 21 13 21V17ZM7 21C8.65685 21 10 19.6569 10 18H6C6 17.4477 6.44771 17 7 17V21ZM11.9524 1.03931C10.8289 0.0763325 9.17109 0.0763357 8.04763 1.03931L10.6508 4.07633C10.2763 4.39732 9.7237 4.39733 9.34921 4.07633L11.9524 1.03931ZM1 18C1 19.6569 2.34314 21 4 21V17C4.55229 17 5 17.4477 5 18H1ZM15 18C15 17.4477 15.4477 17 16 17V21C17.6569 21 19 19.6569 19 18H15ZM19 8.45993C19 7.58416 18.6173 6.75211 17.9524 6.18216L15.3492 9.21919C15.1276 9.02921 15 8.75186 15 8.45993H19ZM5 8.45994C5 8.75186 4.87244 9.02921 4.65079 9.21919L2.04763 6.18217C1.38269 6.75211 1 7.58416 1 8.45994H5Z" fill="" mask="url(#path-1-inside-1_7788_370305)"/>
    <path d="M2 9L10 2L18 9" stroke="" stroke-width="2" stroke-linecap="round" stroke-linejoin="round"/>
</svg>
