<svg width="20" height="20" viewBox="0 0 20 20" fill="#A4A4A5" xmlns="http://www.w3.org/2000/svg">
    <path fill-rule="evenodd" clip-rule="evenodd" d="M3 1C1.89543 1 1 1.89543 1 3V7C1 8.10457 1.89543 9 3 9H7C8.10457 9 9 8.10457 9 7V3C9 1.89543 8.10457 1 7 1H3ZM13 1C11.8954 1 11 1.89543 11 3V7C11 8.10457 11.8954 9 13 9H17C18.1046 9 19 8.10457 19 7V3C19 1.89543 18.1046 1 17 1H13ZM1 13C1 11.8954 1.89543 11 3 11H7C8.10457 11 9 11.8954 9 13V17C9 18.1046 8.10457 19 7 19H3C1.89543 19 1 18.1046 1 17V13ZM13 11C11.8954 11 11 11.8954 11 13V17C11 18.1046 11.8954 19 13 19H17C18.1046 19 19 18.1046 19 17V13C19 11.8954 18.1046 11 17 11H13Z" fill=""/>
</svg>
