<svg width="22" height="22" viewBox="0 0 22 22" fill="none" xmlns="http://www.w3.org/2000/svg">
<path fill-rule="evenodd" clip-rule="evenodd" d="M4 2C2.89543 2 2 2.89543 2 4V8C2 9.10457 2.89543 10 4 10H8C9.10457 10 10 9.10457 10 8V4C10 2.89543 9.10457 2 8 2H4ZM14 2C12.8954 2 12 2.89543 12 4V8C12 9.10457 12.8954 10 14 10H18C19.1046 10 20 9.10457 20 8V4C20 2.89543 19.1046 2 18 2H14ZM2 14C2 12.8954 2.89543 12 4 12H8C9.10457 12 10 12.8954 10 14V18C10 19.1046 9.10457 20 8 20H4C2.89543 20 2 19.1046 2 18V14ZM14 12C12.8954 12 12 12.8954 12 14V18C12 19.1046 12.8954 20 14 20H18C19.1046 20 20 19.1046 20 18V14C20 12.8954 19.1046 12 18 12H14Z" fill="white"/>
</svg>
