<svg width="22" height="22" viewBox="0 0 22 22" fill="#A4A4A5" xmlns="http://www.w3.org/2000/svg">
    <path d="M8 19C8 20.1046 7.10457 21 6 21C4.89543 21 4 20.1046 4 19C4 17.8954 4.89543 17 6 17C7.10457 17 8 17.8954 8 19Z" fill=""/>
    <path d="M19 19C19 20.1046 18.1046 21 17 21C15.8954 21 15 20.1046 15 19C15 17.8954 15.8954 17 17 17C18.1046 17 19 17.8954 19 19Z" fill=""/>
    <path d="M19.5 11.5L21 5.5H6L8 14L19.5 11.5Z" fill=""/>
    <path fill-rule="evenodd" clip-rule="evenodd" d="M0.0218839 1.79241C0.119925 1.33042 0.527819 1 1.0001 1H5.0001C5.45897 1 5.85895 1.3123 5.97024 1.75746L6.65588 4.5H21.0001C21.308 4.5 21.5988 4.64187 21.7883 4.88459C21.9778 5.1273 22.0449 5.44379 21.9702 5.74254L20.4702 11.7425C20.378 12.1116 20.0843 12.3964 19.7125 12.4772L8.21253 14.9772C7.68461 15.0919 7.16099 14.7667 7.02996 14.2425L4.64825 4.71572L0.593961 2.91381C0.162385 2.722 -0.0761576 2.2544 0.0218839 1.79241ZM7.15588 6.5L8.73509 12.8169L18.6806 10.6548L19.7193 6.5H7.15588Z" fill=""/>
</svg>
