<svg width="28" height="28" viewBox="0 0 28 28" fill="none" xmlns="http://www.w3.org/2000/svg">
<g clip-path="url(#clip0)">
<path fill-rule="evenodd" clip-rule="evenodd" d="M5.70782 7.54137C5.37928 7.83976 5.28474 8.31801 5.47501 8.71896L8.45308 14.9945C8.49552 15.0839 8.55091 15.1666 8.61747 15.2399L16.8115 24.2616C17.1856 24.6735 17.8227 24.7041 18.2345 24.33L27.183 16.2025C27.5948 15.8285 27.6254 15.1914 27.2514 14.7795L19.0573 5.75782C18.9908 5.68454 18.9138 5.62147 18.8288 5.57064L12.8679 2.00428C12.4871 1.77642 12.002 1.82465 11.6735 2.12304L5.70782 7.54137Z" fill="white"/>
<path fill-rule="evenodd" clip-rule="evenodd" d="M9.39241 7.97266C9.3458 7.37315 9.56691 6.75924 10.0465 6.32366C10.8702 5.57554 12.1444 5.6368 12.8925 6.46049C13.6406 7.28417 13.5793 8.55836 12.7557 9.30648C12.2857 9.73334 11.669 9.89669 11.0871 9.80527C9.49356 9.71514 7.78815 10.6559 6.00539 12.7366L4.47542 11.4258C5.93788 9.71887 7.58825 8.43649 9.39241 7.97266Z" fill="#D00A10"/>
<path fill-rule="evenodd" clip-rule="evenodd" d="M2.73727 17.1857C2.76481 17.5146 2.86342 17.6412 2.92159 17.691C2.97977 17.7409 3.11997 17.8189 3.44916 17.7957C3.78443 17.772 4.23788 17.6449 4.7878 17.3742C5.88414 16.8345 7.1842 15.8125 8.38418 14.412C8.74617 13.9895 9.38211 13.9404 9.8046 14.3024C10.2271 14.6644 10.2761 15.3004 9.91415 15.7228C8.58022 17.2797 7.07251 18.4951 5.67769 19.1818C4.98203 19.5242 4.26906 19.7576 3.59086 19.8054C2.90659 19.8537 2.18628 19.7141 1.61072 19.221C1.03516 18.7279 0.786803 18.0375 0.729552 17.3539C0.672809 16.6764 0.794106 15.936 1.02587 15.1961C1.49055 13.7125 2.46034 12.0362 3.79427 10.4794C5.92784 7.98918 8.93301 6.46313 11.55 6.74461C12.1032 6.80411 12.5034 7.30077 12.4439 7.85394C12.3844 8.40711 11.8877 8.8073 11.3345 8.7478C9.59167 8.56034 7.18746 9.6156 5.32424 11.7902C4.12426 13.1908 3.31376 14.6322 2.94851 15.7983C2.7653 16.3832 2.70922 16.8508 2.73727 17.1857Z" fill="white"/>
<path d="M15.6289 16.5618C16.0137 16.2123 16.4417 15.6766 16.4599 14.9415C16.4707 14.5398 16.357 14.0551 15.9425 13.5988C15.5036 13.1155 15.0223 12.9811 14.6727 12.9558C14.2035 12.9247 13.6155 13.0504 12.9712 13.6356C12.6312 13.9445 12.143 14.4858 12.1492 15.2477C12.1441 15.7096 12.3512 16.2074 12.7007 16.5921C13.034 16.959 13.4429 17.1755 13.9543 17.2172C14.6878 17.2696 15.2173 16.9356 15.6289 16.5618ZM18.4223 19.6913L19.1919 18.9923L17.2339 9.87833L16.4554 10.5854L18.4223 19.6913ZM13.7043 14.4068C13.8744 14.2524 14.0671 14.159 14.3151 14.1623C14.5802 14.1665 14.8225 14.2894 14.985 14.4684C15.1557 14.6563 15.2377 14.9084 15.2271 15.1304C15.2083 15.3435 15.1024 15.5865 14.9235 15.7491C14.7445 15.9116 14.5355 15.9872 14.3387 15.9863C14.0988 15.9918 13.8297 15.8933 13.6428 15.6875C13.4884 15.5175 13.3966 15.2906 13.3991 15.0596C13.4008 14.8458 13.4985 14.5938 13.7043 14.4068ZM20.7417 13.8124C20.9117 13.6579 21.1045 13.5645 21.3525 13.5679C21.6176 13.5721 21.8598 13.695 22.0224 13.8739C22.1931 14.0619 22.2751 14.314 22.2644 14.536C22.2456 14.749 22.1398 14.9921 21.9608 15.1546C21.7818 15.3172 21.5728 15.3927 21.376 15.3918C21.1362 15.3974 20.8671 15.2989 20.6801 15.0931C20.5257 14.923 20.4339 14.6961 20.4365 14.4652C20.4382 14.2513 20.5359 13.9993 20.7417 13.8124ZM22.6663 15.9673C23.051 15.6178 23.479 15.0821 23.4972 14.3471C23.508 13.9454 23.3944 13.4607 22.9799 13.0043C22.541 12.5211 22.0597 12.3867 21.71 12.3613C21.2408 12.3302 20.6529 12.456 20.0086 13.0412C19.6685 13.35 19.1804 13.8913 19.1865 14.6533C19.1815 15.1151 19.3886 15.6129 19.7381 15.9977C20.0713 16.3646 20.4802 16.5811 20.9917 16.6228C21.7251 16.6751 22.2546 16.3412 22.6663 15.9673Z" fill="#D00A10"/>
<path fill-rule="evenodd" clip-rule="evenodd" d="M5.70782 7.53685C5.37929 7.83524 5.28474 8.31349 5.47501 8.71445L8.45308 14.99C8.49552 15.0794 8.55091 15.1621 8.61747 15.2354L16.8115 24.2571C17.1856 24.6689 17.8227 24.6996 18.2345 24.3255L27.183 16.198C27.5948 15.824 27.6254 15.1869 27.2514 14.775L19.0573 5.7533C18.9908 5.68002 18.9138 5.61695 18.8288 5.56613L12.8679 1.99977C12.4871 1.7719 12.002 1.82014 11.6735 2.11853L5.70782 7.53685Z" fill="#D00A10"/>
<path fill-rule="evenodd" clip-rule="evenodd" d="M9.39241 7.96814C9.3458 7.36864 9.56691 6.75472 10.0465 6.31914C10.8702 5.57103 12.1444 5.63229 12.8925 6.45597C13.6406 7.27965 13.5793 8.55385 12.7557 9.30196C12.2857 9.72882 11.669 9.89218 11.0871 9.80076C9.49356 9.71062 7.78815 10.6514 6.00539 12.7321L4.47542 11.4212C5.93788 9.71435 7.58825 8.43197 9.39241 7.96814Z" fill="white"/>
<path fill-rule="evenodd" clip-rule="evenodd" d="M2.73727 17.1812C2.76481 17.5101 2.86342 17.6367 2.92159 17.6865C2.97977 17.7363 3.11997 17.8144 3.44916 17.7912C3.78443 17.7675 4.23788 17.6404 4.7878 17.3697C5.88415 16.8299 7.1842 15.808 8.38418 14.4075C8.74617 13.985 9.38211 13.9359 9.8046 14.2979C10.2271 14.6599 10.2761 15.2958 9.91415 15.7183C8.58022 17.2752 7.07251 18.4906 5.67769 19.1772C4.98203 19.5197 4.26906 19.7531 3.59086 19.8009C2.90659 19.8492 2.18628 19.7096 1.61072 19.2165C1.03516 18.7233 0.786803 18.0329 0.729552 17.3494C0.672809 16.6719 0.794106 15.9315 1.02587 15.1916C1.49055 13.708 2.46034 12.0317 3.79427 10.4748C5.92784 7.98467 8.93301 6.45861 11.55 6.7401C12.1032 6.79959 12.5034 7.29626 12.4439 7.84942C12.3844 8.40259 11.8877 8.80278 11.3345 8.74329C9.59167 8.55582 7.18746 9.61108 5.32424 11.7857C4.12426 13.1863 3.31376 14.6276 2.94851 15.7938C2.7653 16.3787 2.70922 16.8463 2.73727 17.1812Z" fill="#D00A10"/>
<path d="M15.6289 16.5572C16.0137 16.2078 16.4417 15.6721 16.4599 14.937C16.4707 14.5353 16.357 14.0506 15.9425 13.5942C15.5036 13.111 15.0223 12.9766 14.6727 12.9513C14.2035 12.9201 13.6155 13.0459 12.9712 13.6311C12.6312 13.9399 12.143 14.4813 12.1492 15.2432C12.1441 15.7051 12.3512 16.2028 12.7007 16.5876C13.034 16.9545 13.4429 17.171 13.9543 17.2127C14.6878 17.2651 15.2173 16.9311 15.6289 16.5572ZM18.4223 19.6867L19.1919 18.9878L17.2339 9.87382L16.4554 10.5809L18.4223 19.6867ZM13.7043 14.4023C13.8744 14.2479 14.0671 14.1545 14.3151 14.1578C14.5802 14.162 14.8225 14.2849 14.985 14.4639C15.1557 14.6518 15.2377 14.9039 15.2271 15.1259C15.2083 15.3389 15.1024 15.582 14.9235 15.7446C14.7445 15.9071 14.5355 15.9827 14.3387 15.9817C14.0988 15.9873 13.8297 15.8888 13.6428 15.683C13.4884 15.513 13.3966 15.2861 13.3991 15.0551C13.4008 14.8413 13.4985 14.5892 13.7043 14.4023ZM20.7417 13.8079C20.9117 13.6534 21.1045 13.56 21.3525 13.5634C21.6176 13.5676 21.8598 13.6905 22.0224 13.8694C22.1931 14.0573 22.2751 14.3095 22.2644 14.5314C22.2456 14.7445 22.1398 14.9876 21.9608 15.1501C21.7818 15.3127 21.5728 15.3882 21.376 15.3873C21.1362 15.3929 20.867 15.2944 20.6801 15.0885C20.5257 14.9185 20.4339 14.6916 20.4365 14.4607C20.4382 14.2468 20.5359 13.9948 20.7417 13.8079ZM22.6663 15.9628C23.051 15.6133 23.479 15.0776 23.4972 14.3425C23.508 13.9408 23.3944 13.4562 22.9799 12.9998C22.541 12.5166 22.0597 12.3822 21.71 12.3568C21.2408 12.3257 20.6529 12.4515 20.0086 13.0366C19.6685 13.3455 19.1804 13.8868 19.1865 14.6488C19.1815 15.1106 19.3886 15.6084 19.7381 15.9932C20.0713 16.36 20.4802 16.5765 20.9917 16.6182C21.7251 16.6706 22.2546 16.3367 22.6663 15.9628Z" fill="white"/>
</g>
<defs>
<clipPath id="clip0">
<rect width="28" height="28" fill="white"/>
</clipPath>
</defs>
</svg>
