<svg width="20" height="22" viewBox="0 0 20 22" fill="none" xmlns="http://www.w3.org/2000/svg">
<path fill-rule="evenodd" clip-rule="evenodd" d="M1.11811 4.44096L9.10557 0.44723C9.66863 0.165702 10.3314 0.165702 10.8944 0.447229L18.8818 4.44093L9.99995 8.88188L1.11811 4.44096ZM0.00337763 6.11966C0.00113399 6.15827 0 6.19709 0 6.23608V15.7639C0 16.5215 0.428006 17.214 1.10557 17.5528L8.99995 21.5V10.6179L0.00337763 6.11966ZM10.9999 21.5L18.8944 17.5528C19.572 17.214 20 16.5215 20 15.7639V6.23608C20 6.19707 19.9989 6.15824 19.9966 6.11961L10.9999 10.6179V21.5ZM13 12V14L18 11.5V9.50002L13 12ZM13 18V16L17 14V16L13 18Z" fill="white"/>
</svg>
