<svg width="20" height="19" viewBox="0 0 20 19" fill="none" xmlns="http://www.w3.org/2000/svg">
<path d="M18.75 5.48913C18.75 3.14792 16.7912 1.25 14.375 1.25C11.9588 1.25 10.625 2.5 10 3.75C9.375 2.5 8.04125 1.25 5.625 1.25C3.20875 1.25 1.25 3.14792 1.25 5.48913C1.25 10.9341 7.08333 15.7651 10 17.5C12.9167 15.6316 18.75 10.6138 18.75 5.48913Z" fill="white"/>
<path fill-rule="evenodd" clip-rule="evenodd" d="M0 5.48913C0 2.42069 2.55586 0 5.625 0C7.59554 0 9.02606 0.702695 10 1.65464C10.9739 0.702695 12.4045 0 14.375 0C17.4441 0 20 2.42069 20 5.48913C20 8.5003 18.3071 11.323 16.4182 13.5287C14.5033 15.7647 12.2181 17.5636 10.6743 18.5526C10.2759 18.8077 9.76758 18.8162 9.36097 18.5743C7.80538 17.649 5.50939 15.925 3.58628 13.7041C1.67975 11.5023 0 8.64879 0 5.48913ZM5.625 2.5C3.86164 2.5 2.5 3.87516 2.5 5.48913C2.5 7.7744 3.73691 10.0589 5.47622 12.0676C6.93895 13.7568 8.65854 15.1357 9.97742 16.009C11.308 15.0742 13.044 13.6253 14.5193 11.9026C16.2762 9.85112 17.5 7.6026 17.5 5.48913C17.5 3.87516 16.1384 2.5 14.375 2.5C12.4851 2.5 11.556 3.43301 11.118 4.30902C10.9063 4.7325 10.4735 5 10 5C9.52653 5 9.09371 4.7325 8.88197 4.30902C8.44396 3.43301 7.51487 2.5 5.625 2.5Z" fill="white"/>
</svg>
