<svg width="20" height="20" viewBox="0 0 20 20" fill="none" xmlns="http://www.w3.org/2000/svg">
<path d="M4.24825 4.70961C3.84441 4.69038 3.44095 4.78654 3.0371 5.01692C2.61402 5.22846 2.21056 5.61269 1.82633 6.17038C1.11479 7.47769 0.749793 8.93884 0.769024 10.5342C0.749793 12.0142 1.05749 13.3604 1.65325 14.5712C2.09556 15.475 2.69133 16.3208 3.47979 17.1088C5.30595 18.935 7.49749 19.8388 10.0733 19.8388C12.6298 19.8388 14.8021 18.935 16.6283 17.1088C17.4163 16.3208 18.0313 15.475 18.4736 14.5712C18.9348 13.6292 19.2233 12.6104 19.3194 11.5146C19.3386 11.1877 19.3579 10.8612 19.3771 10.5342C19.3579 10.2073 19.3386 9.88077 19.3194 9.55384C19.1079 7.40077 18.2236 5.53615 16.6283 3.96C15.2636 2.57577 13.6679 1.73 11.8609 1.40346C11.784 1.07654 11.6302 0.807692 11.3802 0.557692C11.1686 0.346154 10.9383 0.192308 10.669 0.0961538C10.4959 0.0384615 10.3036 0 10.0921 0C9.88056 0 9.66902 0.0384615 9.49633 0.0961538C9.24633 0.192308 9.01556 0.346154 8.80441 0.557692C8.43902 0.903846 8.26633 1.32654 8.26633 1.82654C8.26633 2.32615 8.43941 2.76846 8.80441 3.13346C9.15018 3.47961 9.57325 3.65269 10.0925 3.65269C10.5921 3.65269 11.0152 3.47961 11.3806 3.13346C11.6113 2.88346 11.7652 2.63385 11.8421 2.34538C13.399 2.67231 14.764 3.42192 15.9559 4.61385C17.5898 6.24769 18.4163 8.22769 18.4163 10.5346C18.4163 12.0154 18.0706 13.3608 17.3975 14.5715C17.0129 15.2446 16.5325 15.8592 15.9559 16.4362C14.3217 18.07 12.3609 18.8777 10.0736 18.8777C7.76672 18.8777 5.78672 18.07 4.15287 16.4362C3.57595 15.8592 3.09556 15.2446 2.73018 14.5715C2.05749 13.3608 1.71133 12.0154 1.71133 10.5346C1.71133 8.90077 2.11518 7.45885 2.90325 6.17115C3.24902 5.78654 3.63364 5.63308 4.07595 5.69038C4.49902 5.74808 4.90249 5.97885 5.30633 6.40154L6.57479 7.67038C6.55556 7.67038 6.53633 7.68961 6.53633 7.70884C5.86325 8.51615 5.51749 9.45808 5.53672 10.5538C5.51749 11.8031 5.95979 12.86 6.86325 13.7638C7.19018 14.0908 7.55518 14.3596 7.93979 14.5715C8.57402 14.9365 9.30441 15.1092 10.0929 15.1092C10.8813 15.1092 11.5921 14.9365 12.2459 14.5715C12.6113 14.3596 12.9763 14.0908 13.3033 13.7638C14.2067 12.86 14.649 11.8031 14.649 10.5538C14.649 9.30385 14.2071 8.22769 13.3033 7.34346C12.3998 6.44 11.3425 5.99769 10.0929 5.99769C8.9971 5.99769 8.03595 6.34346 7.22864 7.01654C6.6521 6.42077 6.11402 5.90154 5.61402 5.44C5.09441 4.95961 4.6521 4.72885 4.24825 4.70961ZM6.40133 10.5535C6.40133 9.53461 6.76672 8.66923 7.47787 7.95808C8.18941 7.22769 9.07325 6.86231 10.0921 6.86231C11.1109 6.86231 11.9759 7.22769 12.7063 7.95808C13.4175 8.66923 13.7829 9.53461 13.7829 10.5535C13.7829 11.5719 13.4175 12.4365 12.7063 13.1677C11.9759 13.8792 11.1109 14.2442 10.0921 14.2442C9.07325 14.2442 8.18902 13.8792 7.47787 13.1677C6.76672 12.4369 6.40133 11.5723 6.40133 10.5535Z" fill="#696663"/>
<path d="M8.8046 9.28485C8.43922 9.63062 8.26653 10.0537 8.26653 10.5537C8.26653 11.0533 8.4396 11.4956 8.8046 11.8606C9.15076 12.206 9.57345 12.3798 10.0927 12.3798C10.5927 12.3798 11.0154 12.2064 11.3808 11.8606C11.7461 11.4956 11.9188 11.0529 11.9188 10.5537C11.9188 10.0533 11.7458 9.63062 11.3808 9.28485C11.0154 8.91946 10.5927 8.72754 10.0927 8.72754C9.57345 8.72754 9.15076 8.91946 8.8046 9.28485Z" fill="#696663"/>
</svg>
