<svg width="34" height="20" viewBox="0 0 34 20" fill="none" xmlns="http://www.w3.org/2000/svg">
<g clip-path="url(#clip0)">
<path d="M22.0965 17.9985H12.9565V1.99854H22.0978L22.0965 17.9985Z" fill="#FF5F00"/>
<path d="M13.1828 10C13.1828 6.81002 14.6828 3.96877 17.019 2.13752C15.2483 0.748822 13.0619 -0.00402797 10.8115 1.62087e-05C5.26529 1.62087e-05 0.769043 4.47752 0.769043 10C0.769043 15.5225 5.26529 20 10.8115 20C13.0619 20.0042 15.2483 19.2513 17.019 17.8625C15.8238 16.93 14.857 15.7371 14.1922 14.3746C13.5274 13.0122 13.1822 11.516 13.1828 10Z" fill="#EB001B"/>
<path d="M33.269 10C33.269 15.5225 28.7728 20 23.2265 20C20.9762 20.004 18.7899 19.2511 17.019 17.8625C18.2146 16.9302 19.1817 15.7374 19.8467 14.3749C20.5117 13.0124 20.8571 11.5161 20.8565 10C20.8565 6.81002 19.3565 3.96877 17.019 2.13752C18.7899 0.748908 20.9762 -0.00393159 23.2265 1.54415e-05C28.7728 1.54415e-05 33.269 4.47752 33.269 10Z" fill="#F79E1B"/>
</g>
<defs>
<clipPath id="clip0">
<rect width="32.5" height="20" fill="white" transform="translate(0.769043)"/>
</clipPath>
</defs>
</svg>
