<svg width="64" height="64" viewBox="0 0 64 64" fill="none" xmlns="http://www.w3.org/2000/svg">
<path d="M46.745 40.0168L46.7346 40.0134L46.7242 40.0101C45.0909 39.4968 43.2576 39.8704 41.9466 41.1347L41.9368 41.1441L41.9271 41.1538L35.6177 47.4632C27.5334 43.1115 20.855 36.4588 16.5035 28.3798L22.8066 22.0481C24.1384 20.7548 24.5004 18.9001 23.9899 17.2758L23.9866 17.2654L23.9832 17.255C22.8408 13.797 22.2222 10.0891 22.2222 6.22222C22.2222 3.62157 20.1007 1.5 17.5 1.5H6.22222C3.62157 1.5 1.5 3.62157 1.5 6.22222C1.5 37.3073 26.6927 62.5 57.7778 62.5C60.3784 62.5 62.5 60.3784 62.5 57.7778V46.5C62.5 43.8993 60.3784 41.7778 57.7778 41.7778C53.9109 41.7778 50.203 41.1592 46.745 40.0168Z" stroke="#D00A10" stroke-width="3"/>
</svg>
