<svg width="20" height="20" viewBox="0 0 20 20" fill="none" xmlns="http://www.w3.org/2000/svg">
<rect x="1" y="1" width="7" height="7" stroke="#0D0802" stroke-width="2"/>
<rect x="3" y="3" width="3" height="3" fill="#0D0802"/>
<rect x="1" y="12" width="7" height="7" stroke="#0D0802" stroke-width="2"/>
<rect x="3" y="14" width="3" height="3" fill="#0D0802"/>
<rect x="12" y="1" width="7" height="7" stroke="#0D0802" stroke-width="2"/>
<rect x="14" y="3" width="3" height="3" fill="#0D0802"/>
<rect x="18" y="13" width="2" height="4" fill="#0D0802"/>
<rect x="11" y="13" width="2" height="5" transform="rotate(-90 11 13)" fill="#0D0802"/>
<rect x="19" y="15" width="2" height="5" transform="rotate(90 19 15)" fill="#0D0802"/>
<rect x="14" y="12" width="2" height="3" fill="#0D0802"/>
<rect x="20" y="18" width="2" height="2" transform="rotate(90 20 18)" fill="#0D0802"/>
<rect x="15" y="16" width="4" height="4" transform="rotate(90 15 16)" fill="#0D0802"/>
</svg>
