<svg width="44" height="64" viewBox="0 0 44 64" fill="none" xmlns="http://www.w3.org/2000/svg">
<path fill-rule="evenodd" clip-rule="evenodd" d="M40.3358 30C41.4062 27.5501 42 24.8444 42 22C42 10.9543 33.0457 2 22 2C10.9543 2 2 10.9543 2 22C2 24.8444 2.59379 27.5501 3.66417 30L18.4227 59.7889C19.1003 61.144 20.4854 62 22.0005 62C23.5155 62 24.9006 61.144 25.5782 59.7889L40.3358 30ZM22 30C26.4183 30 30 26.4183 30 22C30 17.5817 26.4183 14 22 14C17.5817 14 14 17.5817 14 22C14 26.4183 17.5817 30 22 30Z" stroke="#D00A10" stroke-width="3"/>
</svg>
