<svg width="20" height="20" viewBox="0 0 20 20" fill="none" xmlns="http://www.w3.org/2000/svg">
<g clip-path="url(#clip0_7978_516840)">
<path d="M9.99992 19.1667C15.0625 19.1667 19.1666 15.0626 19.1666 10C19.1666 4.9374 15.0625 0.833344 9.99992 0.833344C4.93731 0.833344 0.833252 4.9374 0.833252 10C0.833252 15.0626 4.93731 19.1667 9.99992 19.1667Z" fill="url(#paint0_linear_7978_516840)"/>
<path fill-rule="evenodd" clip-rule="evenodd" d="M4.98269 9.90326C7.65496 8.73899 9.4369 7.97144 10.3285 7.60059C12.8742 6.54175 13.4031 6.35782 13.7479 6.35175C13.8237 6.35041 13.9933 6.36921 14.1031 6.45832C14.1959 6.53357 14.2214 6.63522 14.2336 6.70657C14.2458 6.77791 14.261 6.94044 14.2489 7.06743C14.111 8.5169 13.514 12.0344 13.2104 13.6578C13.0819 14.3447 12.8289 14.5751 12.5839 14.5976C12.0516 14.6466 11.6474 14.2458 11.1318 13.9078C10.325 13.379 9.86922 13.0498 9.08609 12.5337C8.18105 11.9373 8.76775 11.6095 9.28353 11.0738C9.41851 10.9336 11.7639 8.80022 11.8093 8.60669C11.815 8.58249 11.8203 8.49227 11.7667 8.44463C11.7131 8.39699 11.634 8.41328 11.5769 8.42623C11.496 8.4446 10.2071 9.29648 7.71035 10.9819C7.34451 11.2331 7.01315 11.3555 6.71626 11.3491C6.38896 11.342 5.75937 11.164 5.29134 11.0119C4.71728 10.8253 4.26102 10.7266 4.30075 10.4097C4.32145 10.2446 4.54876 10.0758 4.98269 9.90326Z" fill="white"/>
</g>
<defs>
<linearGradient id="paint0_linear_7978_516840" x1="9.99992" y1="0.833344" x2="9.99992" y2="19.0307" gradientUnits="userSpaceOnUse">
<stop stop-color="#2AABEE"/>
<stop offset="1" stop-color="#229ED9"/>
</linearGradient>
<clipPath id="clip0_7978_516840">
<rect width="18.3333" height="18.3333" fill="white" transform="translate(0.833252 0.833344)"/>
</clipPath>
</defs>
</svg>
