<svg width="16" height="16" viewBox="0 0 16 16" fill="none" xmlns="http://www.w3.org/2000/svg">
<path fill-rule="evenodd" clip-rule="evenodd" d="M8 14C11.3137 14 14 11.3137 14 8C14 4.68629 11.3137 2 8 2C4.68629 2 2 4.68629 2 8C2 11.3137 4.68629 14 8 14ZM8 16C12.4183 16 16 12.4183 16 8C16 3.58172 12.4183 0 8 0C3.58172 0 0 3.58172 0 8C0 12.4183 3.58172 16 8 16Z" fill="#A4A4A5"/>
<path fill-rule="evenodd" clip-rule="evenodd" d="M8 4C8.55228 4 9 4.44772 9 5V7.61257L10.6838 7.05132C11.2077 6.87667 11.774 7.15983 11.9487 7.68377C12.1233 8.20772 11.8402 8.77404 11.3162 8.94868L8.31623 9.94868C8.01128 10.0503 7.67606 9.99919 7.41529 9.81124C7.15452 9.62329 7 9.32144 7 9V5C7 4.44772 7.44772 4 8 4Z" fill="#A4A4A5"/>
</svg>
