<svg width="28" height="28" viewBox="0 0 28 28" fill="none" xmlns="http://www.w3.org/2000/svg">
<path d="M24.2557 2.7309C23.5599 2.08891 20.7483 0.0478263 14.4855 0.0200964C14.4855 0.0200964 7.10013 -0.425261 3.49988 2.87711C1.49576 4.88164 0.790754 7.81469 0.716388 11.4511C0.642021 15.0875 0.545807 21.9023 7.11484 23.7501H7.12114L7.11694 26.5697C7.11694 26.5697 7.07492 27.7113 7.82657 27.944C8.73577 28.2264 9.26936 27.3587 10.1374 26.4235C10.6138 25.9101 11.2718 25.1559 11.7676 24.5795C16.2602 24.9576 19.7155 24.0934 20.108 23.9656C21.0151 23.6715 26.148 23.014 26.9829 16.1996C27.8446 9.17598 26.5661 4.73332 24.2557 2.7309Z" fill="white"/>
<path d="M22.7952 4.14976C22.2069 3.61533 19.668 2.02003 14.3703 1.99692C14.3703 1.99692 8.09707 1.58475 5.05183 4.34303C3.35695 6.01649 2.78597 8.50503 2.72337 11.5419C2.66076 14.5787 2.33641 20.3801 7.8912 21.9233C7.8912 21.9233 7.86935 26.2303 7.86683 26.6089C7.86683 26.8735 7.90885 27.0546 8.0601 27.092C8.16892 27.1185 8.33194 27.0622 8.47059 26.924C9.35878 26.032 12.2024 22.6015 12.2024 22.6015C16.0177 22.8506 19.0533 22.0973 19.3798 21.9906C20.1495 21.7431 24.3127 21.3856 25.0173 15.6942C25.7454 9.82766 24.7497 5.82322 22.7952 4.14976Z" fill="#7360F2"/>
<path fill-rule="evenodd" clip-rule="evenodd" d="M14.5923 9.08525C14.6025 8.88991 14.7691 8.73981 14.9644 8.75C15.6953 8.78813 16.3034 9.00936 16.7365 9.45713C17.1679 9.90318 17.3793 10.5263 17.4165 11.2747C17.4262 11.4701 17.2756 11.6363 17.0803 11.646C16.8849 11.6557 16.7187 11.5052 16.709 11.3098C16.6772 10.6692 16.5014 10.2331 16.2273 9.94959C15.9548 9.66784 15.5389 9.4893 14.9275 9.45741C14.7322 9.44722 14.5821 9.2806 14.5923 9.08525Z" fill="white"/>
<path fill-rule="evenodd" clip-rule="evenodd" d="M14.0571 7.1771C14.0714 6.98201 14.2411 6.83544 14.4362 6.84972C15.9236 6.95857 17.1207 7.46678 17.9928 8.41868L17.9929 8.41881C18.8555 9.36135 19.2654 10.5339 19.2357 11.9091C19.2314 12.1047 19.0695 12.2598 18.8739 12.2556C18.6783 12.2514 18.5232 12.0894 18.5275 11.8938C18.5537 10.681 18.197 9.69113 17.4703 8.89705C16.7458 8.10626 15.7331 7.65489 14.3845 7.5562C14.1894 7.54192 14.0428 7.37219 14.0571 7.1771Z" fill="white"/>
<path fill-rule="evenodd" clip-rule="evenodd" d="M13.4307 5.36319C13.432 5.16759 13.5917 5.01012 13.7873 5.01148C15.8428 5.0258 17.5802 5.71008 18.9751 7.06994C20.3818 8.44117 21.0774 10.308 21.095 12.6265C21.0965 12.8221 20.9391 12.9819 20.7435 12.9834C20.5479 12.9849 20.3882 12.8275 20.3867 12.6319C20.3701 10.4593 19.7238 8.78902 18.4807 7.57717C17.2259 6.35395 15.6679 5.73297 13.7824 5.71984C13.5868 5.71848 13.4293 5.5588 13.4307 5.36319Z" fill="white"/>
<path d="M15.0172 16.0362C15.0172 16.0362 15.515 16.0782 15.7831 15.748L16.3058 15.0904C16.5578 14.7644 17.1662 14.5564 17.762 14.8883C18.2084 15.1429 18.6419 15.4198 19.0607 15.7177C19.456 16.0084 20.2657 16.684 20.2682 16.684C20.6539 17.0097 20.7429 17.4878 20.4804 17.992C20.4804 17.9949 20.4783 18 20.4783 18.0025C20.189 18.5038 19.8219 18.956 19.3905 19.3419C19.3854 19.3444 19.3854 19.347 19.3808 19.3495C19.0061 19.6626 18.6379 19.8406 18.2763 19.8835C18.223 19.8928 18.1689 19.8962 18.1149 19.8936C17.9555 19.8951 17.7968 19.8707 17.6452 19.8213L17.6334 19.8041C17.0763 19.6469 16.1461 19.2537 14.597 18.3991C13.7006 17.9104 12.8471 17.3466 12.0459 16.7139C11.6442 16.3969 11.2611 16.0571 10.8984 15.6963L10.8598 15.6576L10.8211 15.619L10.7825 15.5803C10.7694 15.5677 10.7568 15.5547 10.7438 15.5417C10.3829 15.179 10.0432 14.7959 9.72622 14.3942C9.09355 13.593 8.52981 12.7397 8.041 11.8435C7.18642 10.294 6.79316 9.36462 6.63602 8.80667L6.61879 8.7949C6.56954 8.64326 6.54527 8.48461 6.54695 8.32518C6.54401 8.2712 6.54725 8.21707 6.55661 8.16384C6.60171 7.80279 6.77999 7.43432 7.09146 7.05843C7.09398 7.0538 7.0965 7.0538 7.09902 7.04876C7.48485 6.6174 7.93701 6.25034 8.43846 5.96142C8.44098 5.96142 8.44602 5.9589 8.44896 5.9589C8.95314 5.6963 9.43127 5.78537 9.75647 6.16897C9.75899 6.17149 10.4333 6.98112 10.7228 7.37648C11.0208 7.79568 11.2976 8.22953 11.5522 8.67642C11.8841 9.27177 11.6761 9.88141 11.3501 10.1327L10.6926 10.6553C10.3606 10.9234 10.4043 11.4213 10.4043 11.4213C10.4043 11.4213 11.3782 15.1072 15.0172 16.0362Z" fill="white"/>
</svg>
