<svg width="47" height="16" viewBox="0 0 47 16" fill="none" xmlns="http://www.w3.org/2000/svg">
<g clip-path="url(#clip0)">
<path d="M20.3138 15.4272H16.5058L18.8862 0.473386H22.6929L20.3138 15.4272ZM13.3046 0.473386L9.67507 10.7589L9.24554 8.54354L7.96554 1.81985C7.96554 1.81985 7.81046 0.473386 6.16 0.473386H0.159998L0.0898438 0.726924C0.0898438 0.726924 1.92369 1.11708 4.07138 2.43523L7.37846 15.4272H11.3452L17.4006 0.473386H13.3058H13.3046ZM43.2455 15.4272H46.7409L43.6935 0.473386H40.6338C39.2209 0.473386 38.8763 1.58723 38.8763 1.58723L33.1988 15.4272H37.1668L37.9606 13.2057H42.8L43.2455 15.4272ZM39.0572 10.1374L41.0572 4.54108L42.1822 10.1374H39.0572ZM33.4966 4.06969L34.0406 0.857386C34.0406 0.857386 32.3643 0.205078 30.6166 0.205078C28.7274 0.205078 24.2412 1.05062 24.2412 5.15646C24.2412 9.01985 29.5065 9.06785 29.5065 11.0962C29.5065 13.1269 24.784 12.7626 23.2246 11.4826L22.6585 14.8402C22.6585 14.8402 24.3594 15.6845 26.9563 15.6845C29.5532 15.6845 33.472 14.3097 33.472 10.5645C33.472 6.67769 28.16 6.31462 28.16 4.62477C28.16 2.93369 31.8683 3.15154 33.4966 4.06969Z" fill="#2566AF"/>
</g>
<defs>
<clipPath id="clip0">
<rect width="46.7692" height="16" fill="white"/>
</clipPath>
</defs>
</svg>
