<svg width="16" height="16" viewBox="0 0 16 16" fill="none" xmlns="http://www.w3.org/2000/svg">
<path fill-rule="evenodd" clip-rule="evenodd" d="M7.04566 0.553823C7.46762 -0.184608 8.53238 -0.184608 8.95434 0.553823L15.8536 12.6275C16.2723 13.3602 15.7432 14.2719 14.8992 14.2719H1.10078C0.256824 14.2719 -0.272275 13.3602 0.146446 12.6275L7.04566 0.553823ZM9 11C9 11.5523 8.55229 12 8 12C7.44772 12 7 11.5523 7 11C7 10.4477 7.44772 10 8 10C8.55229 10 9 10.4477 9 11ZM8 3C7.44772 3 7 3.44772 7 4V8C7 8.55228 7.44772 9 8 9C8.55229 9 9 8.55228 9 8V4C9 3.44772 8.55229 3 8 3Z" fill="#A4A4A5"/>
</svg>
